<svg xmlns="http://www.w3.org/2000/svg" width="190" height="190" viewBox="0 0 190 190">
  <!-- Axe Habitat bioclimatique : maisons. Lignes foncées sur transparent (posé sur crème). -->
  <g fill="none" stroke="#3f3a2e" stroke-opacity="0.13" stroke-width="1.3" stroke-linecap="round" stroke-linejoin="round">
    <g transform="translate(40 48) rotate(-6)">
      <path d="M-12 12 L-12 -1 L12 -1 L12 12 Z"/>
      <path d="M-15 -1 L0 -14 L15 -1"/>
      <path d="M-3 12 L-3 4 L3 4 L3 12"/>
    </g>
    <g transform="translate(138 80) rotate(7)">
      <path d="M-12 12 L-12 -1 L12 -1 L12 12 Z"/>
      <path d="M-15 -1 L0 -14 L15 -1"/>
      <path d="M-3 12 L-3 4 L3 4 L3 12"/>
    </g>
    <g transform="translate(86 152) rotate(-3)">
      <path d="M-12 12 L-12 -1 L12 -1 L12 12 Z"/>
      <path d="M-15 -1 L0 -14 L15 -1"/>
      <path d="M-3 12 L-3 4 L3 4 L3 12"/>
    </g>
  </g>
</svg>
